<?xml version="1.0" encoding="iso-8859-1"?>
<!-- Generator: Adobe Illustrator 21.1.0, SVG Export Plug-In . SVG Version: 6.00 Build 0)  -->
<svg version="1.1" id="Layer_1" xmlns="http://www.w3.org/2000/svg" xmlns:xlink="http://www.w3.org/1999/xlink" x="0px" y="0px"
	 viewBox="0 0 100 100" style="enable-background:new 0 0 100 100;" xml:space="preserve">
<g>
	<path d="M31.945,86.583L31.945,86.583l-20.919,0.005c0,0,0,0-0.001,0c-1.979,0-3.747-1.024-4.73-2.741
		c-0.984-1.717-0.974-3.761,0.027-5.467l7.042-12.015l0.807,3.089c0.176,0.674,0.784,1.12,1.45,1.12c0.125,0,0.253-0.016,0.38-0.049
		c0.801-0.21,1.281-1.029,1.072-1.831l-1.812-6.931c-0.209-0.801-1.03-1.281-1.831-1.071L6.5,62.503
		c-0.801,0.209-1.281,1.029-1.072,1.83c0.209,0.802,1.029,1.283,1.831,1.072l3.766-0.984L3.733,76.862
		c-1.551,2.646-1.567,5.814-0.042,8.476s4.266,4.25,7.333,4.25c0,0,0.001,0,0.002,0l20.918-0.005c0.828,0,1.5-0.672,1.5-1.5
		C33.445,87.254,32.773,86.583,31.945,86.583z"/>
	<path d="M78.65,62.995c0.817,0,1.484-0.655,1.5-1.473l0.159-8.699c0.011-0.603-0.34-1.153-0.892-1.398l-13.743-6.1l-5.297-8.553
		c-0.273-0.442-0.756-0.71-1.275-0.71H39.797c-0.517,0-0.997,0.266-1.271,0.704l-5.637,9.003h-7.911c-0.829,0-1.5,0.671-1.5,1.5
		v14.226c0,0.828,0.671,1.5,1.5,1.5h5.399c0.539,2.975,3.143,5.239,6.27,5.239c3.128,0,5.731-2.264,6.271-5.239h14.581
		c0.539,2.975,3.143,5.239,6.271,5.239c3.127,0,5.731-2.264,6.27-5.239H78.65z M26.477,48.769h7.049
		c0.038,0,0.074-0.008,0.111-0.011c0.027,0.001,0.054,0.011,0.081,0.011c0.5,0,0.988-0.25,1.273-0.704l5.637-9.003h17.64
		l5.101,8.236c0.001,0.001,0.002,0.002,0.003,0.004c0.052,0.084,0.113,0.163,0.181,0.236c0.028,0.03,0.062,0.053,0.092,0.081
		c0.042,0.038,0.082,0.079,0.129,0.112c0.081,0.058,0.168,0.107,0.258,0.147c0.001,0,0.002,0.001,0.003,0.002l13.257,5.884
		l-0.114,6.231h-7.31c-0.798-2.612-3.23-4.518-6.099-4.518c-2.87,0-5.302,1.906-6.1,4.518H42.746c-0.798-2.612-3.23-4.518-6.1-4.518
		c-2.87,0-5.301,1.906-6.099,4.518h-4.069V48.769z M36.646,65.234c-1.863,0-3.378-1.516-3.378-3.379
		c0-1.862,1.515-3.378,3.378-3.378s3.378,1.516,3.378,3.378C40.024,63.719,38.509,65.234,36.646,65.234z M63.769,65.234
		c-1.863,0-3.379-1.516-3.379-3.379c0-1.862,1.516-3.378,3.379-3.378c1.862,0,3.378,1.516,3.378,3.378
		C67.146,63.719,65.631,65.234,63.769,65.234z"/>
	<path d="M33.829,28.346c0.25,0.159,0.529,0.235,0.805,0.235c0.495,0,0.98-0.245,1.266-0.693l11.25-17.635
		c1.064-1.668,2.873-2.609,4.855-2.514c1.977,0.094,3.694,1.202,4.595,2.964L64.4,25.958l-3.578-1.042
		c-0.788-0.231-1.627,0.224-1.859,1.021c-0.231,0.795,0.226,1.628,1.021,1.859l6.878,2.003c0.14,0.041,0.28,0.061,0.42,0.061
		c0.649,0,1.248-0.426,1.439-1.081l2.003-6.877c0.231-0.795-0.226-1.628-1.021-1.859c-0.795-0.232-1.628,0.225-1.86,1.021
		l-0.935,3.21L59.272,9.337c-1.397-2.731-4.061-4.449-7.124-4.595c-3.057-0.149-5.877,1.311-7.527,3.897l-11.25,17.635
		C32.926,26.973,33.13,27.9,33.829,28.346z"/>
	<path d="M97.058,76.789l-9.247-15.418c-0.427-0.711-1.35-0.942-2.058-0.515c-0.711,0.426-0.941,1.348-0.515,2.058l9.242,15.41
		c1.007,1.702,1.025,3.746,0.049,5.467c-0.978,1.721-2.742,2.753-4.716,2.761H73.851l2.572-2.439c0.602-0.569,0.626-1.52,0.056-2.12
		s-1.52-0.626-2.12-0.056l-5.197,4.93c-0.602,0.569-0.626,1.52-0.056,2.12l4.93,5.197c0.295,0.311,0.69,0.468,1.088,0.468
		c0.371,0,0.742-0.137,1.032-0.412c0.602-0.569,0.626-1.52,0.056-2.12l-2.435-2.567h16.043c3.067-0.012,5.804-1.611,7.318-4.279
		S98.624,79.437,97.058,76.789z"/>
</g>
</svg>
