<?xml version="1.0" encoding="iso-8859-1"?>
<!-- Generator: Adobe Illustrator 21.1.0, SVG Export Plug-In . SVG Version: 6.00 Build 0)  -->
<svg version="1.1" id="Layer_1" xmlns="http://www.w3.org/2000/svg" xmlns:xlink="http://www.w3.org/1999/xlink" x="0px" y="0px"
	 viewBox="0 0 100.75 100.75" style="enable-background:new 0 0 100.75 100.75;" xml:space="preserve">
<g>
	<path d="M58.326,25.908L43.579,42.873c-0.385,0.443-0.476,1.07-0.233,1.604c0.243,0.535,0.775,0.878,1.362,0.88l8.207,0.022
		L40.1,57.999c-0.59,0.582-0.597,1.531-0.016,2.122c0.293,0.298,0.681,0.447,1.069,0.447c0.38,0,0.76-0.144,1.053-0.431
		L57.62,44.958c0.433-0.427,0.566-1.073,0.336-1.636c-0.229-0.563-0.776-0.932-1.385-0.933l-8.574-0.023l12.595-14.49
		c0.543-0.625,0.477-1.573-0.148-2.116C59.819,25.216,58.87,25.283,58.326,25.908z"/>
	<path d="M88.959,16.039H40.986c-3.213,0-5.827,2.569-5.827,5.726v13.787L11.041,35.58c-3.213,0-5.827,2.569-5.827,5.726v25.155
		c0,3.154,2.614,5.721,5.827,5.721h5.129v10.279c0,0.59,0.346,1.125,0.884,1.368c0.197,0.089,0.407,0.132,0.615,0.132
		c0.36,0,0.715-0.129,0.995-0.377l12.878-11.402h26.436c3.212,0,5.826-2.566,5.826-5.721V52.64h4.653l12.878,11.402
		c0.441,0.391,1.073,0.488,1.61,0.245c0.538-0.242,0.884-0.777,0.884-1.368V52.64h5.128c3.213,0,5.827-2.566,5.827-5.72V21.765
		C94.785,18.608,92.172,16.039,88.959,16.039z M91.785,46.92c0,1.5-1.268,2.72-2.827,2.72H82.33c-0.829,0-1.5,0.671-1.5,1.5v8.448
		l-10.81-9.571c-0.274-0.243-0.628-0.377-0.994-0.377h-6.722c-0.829,0-1.5,0.671-1.5,1.5v15.321c0,1.5-1.268,2.721-2.826,2.721
		H30.973c-0.366,0-0.72,0.134-0.994,0.377l-10.81,9.57v-8.447c0-0.829-0.671-1.5-1.5-1.5H11.04c-1.559,0-2.827-1.221-2.827-2.721
		V41.307c0-1.503,1.268-2.726,2.829-2.726l24.894-0.029h0.723c0.829,0,1.5-0.671,1.5-1.5V21.766c0-1.503,1.268-2.726,2.827-2.726
		h47.973c1.559,0,2.827,1.223,2.827,2.726L91.785,46.92L91.785,46.92z"/>
</g>
</svg>
