<?xml version="1.0" encoding="iso-8859-1"?>
<!-- Generator: Adobe Illustrator 21.0.2, SVG Export Plug-In . SVG Version: 6.00 Build 0)  -->
<svg version="1.1" id="Layer_1" xmlns="http://www.w3.org/2000/svg" xmlns:xlink="http://www.w3.org/1999/xlink" x="0px" y="0px"
	 viewBox="0 0 100.5 100.5" style="enable-background:new 0 0 100.5 100.5;" xml:space="preserve">
<path d="M79.938,28.201c-0.001-0.006-0.001-0.013-0.002-0.019c-0.026-0.129-0.073-0.25-0.13-0.365
	c-0.014-0.028-0.029-0.055-0.045-0.083c-0.065-0.114-0.14-0.221-0.232-0.314c-0.001-0.001-0.002-0.003-0.003-0.004L63.562,11.447
	c-0.001-0.001-0.002-0.001-0.003-0.002c-0.093-0.092-0.201-0.167-0.315-0.233c-0.027-0.016-0.054-0.031-0.082-0.045
	c-0.115-0.057-0.235-0.104-0.364-0.13c-0.008-0.002-0.015-0.001-0.023-0.002c-0.089-0.016-0.18-0.028-0.274-0.028H21.532
	c-0.829,0-1.5,0.672-1.5,1.5V87.49c0,0.828,0.671,1.5,1.5,1.5h56.933c0.829,0,1.5-0.672,1.5-1.5V28.475
	C79.966,28.383,79.955,28.291,79.938,28.201z M64.002,16.131l10.843,10.847H64.002V16.131z M23.033,85.992V14.009h37.969v14.469
	c0,0.828,0.671,1.5,1.5,1.5h14.464v56.015L23.033,85.992L23.033,85.992z"/>
<path d="M48.264,31.897H29.517c-0.829,0-1.5,0.672-1.5,1.5s0.671,1.5,1.5,1.5h18.747c0.829,0,1.5-0.672,1.5-1.5
	S49.093,31.897,48.264,31.897z"/>
<path d="M48.264,39.014H29.517c-0.829,0-1.5,0.672-1.5,1.5s0.671,1.5,1.5,1.5h18.747c0.829,0,1.5-0.672,1.5-1.5
	S49.093,39.014,48.264,39.014z"/>
<path d="M48.264,46.132H29.517c-0.829,0-1.5,0.672-1.5,1.5s0.671,1.5,1.5,1.5h18.747c0.829,0,1.5-0.672,1.5-1.5
	S49.093,46.132,48.264,46.132z"/>
<path d="M62.95,62.418c-4.849,0-8.793,3.942-8.793,8.789c0,4.848,3.945,8.791,8.793,8.791s8.792-3.943,8.792-8.791
	C71.742,66.36,67.798,62.418,62.95,62.418z M62.95,76.998c-3.194,0-5.793-2.598-5.793-5.791c0-3.192,2.599-5.789,5.793-5.789
	c3.193,0,5.792,2.597,5.792,5.789C68.742,74.401,66.144,76.998,62.95,76.998z"/>
</svg>
