<?xml version="1.0" encoding="utf-8"?>
<!-- Generator: Adobe Illustrator 17.0.0, SVG Export Plug-In . SVG Version: 6.00 Build 0)  -->
<!DOCTYPE svg PUBLIC "-//W3C//DTD SVG 1.1//EN" "http://www.w3.org/Graphics/SVG/1.1/DTD/svg11.dtd">
<svg version="1.1" id="icon" xmlns="http://www.w3.org/2000/svg" xmlns:xlink="http://www.w3.org/1999/xlink" x="0px" y="0px"
	 width="128px" height="128px" viewBox="0 0 128 128" enable-background="new 0 0 128 128" xml:space="preserve">
<g>
	<path fill="#231F20" d="M88.378,57.335c-0.957,0-1.781-0.679-1.963-1.62c-0.697-3.599-1.971-8.202-5.662-11.894
		c-3.607-3.606-6.048-5.439-10.98-6.764c-0.896-0.241-1.509-1.066-1.48-1.994c0.237-7.525,4.353-16.738,11.588-25.942
		c0.571-0.726,1.565-0.969,2.406-0.582c0.813,0.373,1.587,0.723,2.329,1.058c6.359,2.872,10.561,4.769,16.927,11.136
		c7.651,7.651,10.688,13.793,13.913,23.131c0.293,0.849-0.015,1.788-0.753,2.299C104.08,53.504,95.23,57.262,88.4,57.335
		C88.393,57.335,88.386,57.335,88.378,57.335z M72.402,33.662c4.755,1.533,7.601,3.751,11.18,7.331
		c3.866,3.866,5.505,8.398,6.397,12.246c5.552-0.579,12.666-3.771,21.191-9.51c-2.897-8.118-5.704-13.417-12.455-20.169
		c-5.851-5.85-9.575-7.531-15.746-10.318c-0.295-0.133-0.595-0.268-0.9-0.406C76.516,20.211,73.069,27.646,72.402,33.662z"/>
	<path fill="#231F20" d="M88.378,57.335c-0.957,0-1.781-0.679-1.963-1.62c-0.697-3.599-1.971-8.202-5.662-11.894
		c-3.607-3.606-6.048-5.439-10.98-6.764c-0.896-0.241-1.509-1.066-1.48-1.994c0.237-7.525,4.353-16.738,11.588-25.942
		c0.571-0.726,1.565-0.969,2.406-0.582c0.813,0.373,1.587,0.723,2.329,1.058c6.359,2.872,10.561,4.769,16.927,11.136
		c7.651,7.651,10.688,13.793,13.913,23.131c0.293,0.849-0.015,1.788-0.753,2.299C104.08,53.504,95.23,57.262,88.4,57.335
		C88.393,57.335,88.386,57.335,88.378,57.335z M72.402,33.662c4.755,1.533,7.601,3.751,11.18,7.331
		c3.866,3.866,5.505,8.398,6.397,12.246c5.552-0.579,12.666-3.771,21.191-9.51c-2.897-8.118-5.704-13.417-12.455-20.169
		c-5.851-5.85-9.575-7.531-15.746-10.318c-0.295-0.133-0.595-0.268-0.9-0.406C76.516,20.211,73.069,27.646,72.402,33.662z"/>
	<path fill="#231F20" d="M39.57,56.909c-0.021,0-0.042,0-0.063-0.001c-7.524-0.236-16.737-4.351-25.941-11.587
		c-0.726-0.571-0.967-1.565-0.582-2.406c0.373-0.813,0.723-1.588,1.058-2.33c2.871-6.359,4.768-10.561,11.134-16.926
		c7.651-7.652,13.793-10.689,23.132-13.913c0.849-0.296,1.788,0.016,2.298,0.754c7.341,10.622,11.1,19.473,11.172,26.303
		c0.01,0.966-0.671,1.802-1.62,1.985c-3.597,0.695-8.2,1.968-11.894,5.661c-3.606,3.607-5.439,6.048-6.764,10.979
		C41.266,56.303,40.472,56.909,39.57,56.909z M17.28,43.132c7.376,5.555,14.811,9.001,20.826,9.667
		c1.534-4.754,3.751-7.6,7.331-11.179c3.868-3.868,8.4-5.507,12.247-6.397c-0.58-5.553-3.771-12.666-9.51-21.191
		c-8.119,2.896-13.417,5.703-20.169,12.455c-5.849,5.849-7.531,9.573-10.317,15.744C17.554,42.526,17.418,42.826,17.28,43.132z"/>
	<path fill="#231F20" d="M48.191,112.401c-0.281,0-0.564-0.059-0.833-0.182c-0.814-0.374-1.588-0.724-2.33-1.059
		c-6.359-2.872-10.56-4.77-16.926-11.135c-7.652-7.652-10.689-13.793-13.913-23.132c-0.293-0.848,0.015-1.787,0.753-2.298
		c10.623-7.342,19.473-11.101,26.304-11.173c0.007,0,0.014,0,0.021,0c0.957,0,1.781,0.679,1.963,1.62
		c0.697,3.598,1.97,8.202,5.661,11.894c3.606,3.606,6.048,5.438,10.98,6.764c0.896,0.241,1.509,1.066,1.48,1.994
		c-0.237,7.526-4.352,16.739-11.588,25.942C49.376,112.132,48.79,112.401,48.191,112.401z M18.476,77.029
		c2.897,8.118,5.704,13.417,12.455,20.169c5.85,5.849,9.574,7.531,15.744,10.317c0.295,0.134,0.595,0.269,0.901,0.407
		c5.554-7.374,9.001-14.81,9.668-20.827c-4.755-1.533-7.601-3.751-11.18-7.33c-3.867-3.866-5.505-8.4-6.397-12.246
		C34.115,68.098,27.001,71.29,18.476,77.029z"/>
	<path fill="#231F20" d="M80.686,111.122c-0.644,0-1.265-0.312-1.646-0.863c-7.341-10.622-11.1-19.472-11.172-26.303
		c-0.01-0.966,0.671-1.802,1.62-1.985c3.597-0.695,8.2-1.968,11.893-5.661c3.606-3.606,5.439-6.048,6.765-10.981
		c0.241-0.894,1.059-1.517,1.995-1.479c7.525,0.237,16.738,4.353,25.941,11.588c0.726,0.571,0.967,1.565,0.581,2.405
		c-0.373,0.813-0.722,1.587-1.056,2.328c-2.872,6.36-4.769,10.563-11.137,16.929c-7.651,7.652-13.793,10.69-23.132,13.913
		C81.124,111.087,80.903,111.122,80.686,111.122z M71.963,85.535c0.58,5.553,3.771,12.666,9.51,21.191
		c8.119-2.896,13.417-5.703,20.168-12.455c5.851-5.851,7.533-9.575,10.32-15.747c0.133-0.294,0.268-0.594,0.406-0.898
		c-7.375-5.555-14.81-9.002-20.827-9.668c-1.534,4.755-3.751,7.601-7.331,11.18C80.341,83.006,75.81,84.644,71.963,85.535z"/>
	<path fill="#231F20" d="M65,115.555c-14.691,0-28.503-5.721-38.891-16.109C15.721,89.058,10,75.247,10,60.555
		c0-14.69,5.721-28.503,16.109-38.891C36.497,11.277,50.309,5.556,65,5.556s28.502,5.721,38.891,16.108
		C114.279,32.053,120,45.865,120,60.555c0,14.691-5.721,28.503-16.109,38.891C93.502,109.835,79.691,115.555,65,115.555z M65,11.556
		c-13.088,0-25.394,5.097-34.648,14.351C21.097,35.162,16,47.467,16,60.555c0,13.089,5.097,25.393,14.352,34.648
		c9.255,9.255,21.56,14.352,34.648,14.352c13.088,0,25.393-5.097,34.648-14.352C108.903,85.949,114,73.644,114,60.555
		c0-13.088-5.097-25.394-14.352-34.648C90.393,16.653,78.088,11.556,65,11.556z M65,88.556c-7.479,0-14.511-2.913-19.799-8.202
		c-10.917-10.916-10.917-28.68,0-39.598c5.289-5.288,12.32-8.201,19.799-8.201c7.479,0,14.511,2.913,19.799,8.201
		c10.917,10.918,10.917,28.682,0,39.598C79.511,85.643,72.479,88.556,65,88.556z M65,38.555c-5.877,0-11.401,2.288-15.557,6.443
		c-8.578,8.578-8.578,22.535,0,31.113c4.156,4.155,9.68,6.444,15.557,6.444c5.876,0,11.401-2.289,15.556-6.444
		c8.578-8.578,8.578-22.535,0-31.113C76.401,40.843,70.877,38.555,65,38.555z"/>
</g>
</svg>
