<?xml version="1.0" encoding="iso-8859-1"?>
<!-- Generator: Adobe Illustrator 21.1.0, SVG Export Plug-In . SVG Version: 6.00 Build 0)  -->
<svg version="1.1" id="Layer_1" xmlns="http://www.w3.org/2000/svg" xmlns:xlink="http://www.w3.org/1999/xlink" x="0px" y="0px"
	 viewBox="0 0 100.75 100.75" style="enable-background:new 0 0 100.75 100.75;" xml:space="preserve">
<path d="M93.424,44.205l-13.71-29.184c-0.093-0.205-0.247-0.387-0.412-0.527c-0.263-0.231-0.598-0.368-0.976-0.368H58.007
	c-0.676-2.862-3.231-5-6.279-5c-3.048,0-5.604,2.138-6.279,5H25.073c-0.65,0-1.198,0.415-1.406,0.993
	c-0.165,0.14-0.31,0.306-0.403,0.511L9.554,44.814c0,0-0.304,0.514-0.304,1.058c0,9.307,7.178,16.878,16,16.878s16-7.571,16-16.878
	c0-0.481-0.047-0.622-0.425-1.336l-14.083-27.41h18.706c0.559,2.367,2.404,4.232,4.751,4.808v56.192H35.92
	c-0.829,0-1.5,0.671-1.5,1.5v7c0,0.829,0.671,1.5,1.5,1.5h31.744c0.829,0,1.5-0.671,1.5-1.5v-7c0-0.829-0.671-1.5-1.5-1.5H53.2
	V21.949c2.374-0.56,4.245-2.437,4.808-4.823h17.898L62.153,43.927c-0.378,0.714-0.425,0.855-0.425,1.336
	c0,9.307,7.178,16.878,16,16.878c8.822,0,16-7.571,16-16.878C93.728,44.719,93.424,44.205,93.424,44.205z M25.25,59.749
	c-6.693,0-12.222-5.429-12.925-12.378h25.85C37.472,54.321,31.943,59.749,25.25,59.749z M37.391,44.372l-24.484,0.316l11.787-24.951
	L37.391,44.372z M66.164,81.125v4H37.42v-4H66.164z M55.159,15.914c-0.148,1.793-1.621,3.211-3.431,3.211
	c-1.908,0-3.46-1.57-3.46-3.5s1.552-3.5,3.46-3.5c1.81,0,3.283,1.418,3.431,3.211c-0.018,0.094-0.029,0.19-0.029,0.289
	S55.141,15.821,55.159,15.914z M78.285,19.128l11.787,24.951l-24.484-0.316L78.285,19.128z M77.728,59.14
	c-6.693,0-12.222-5.428-12.925-12.378h25.85C89.95,53.711,84.421,59.14,77.728,59.14z"/>
</svg>
